<svg xmlns="http://www.w3.org/2000/svg" version="1.1" x="0px" y="0px" viewBox="0 0 283.5 141.7" enable-background="new 0 0 283.5 141.7" xml:space="preserve"><path fill="#FFFFFF" d="M243.8 55H242v-0.6h4.2V55h-1.8v5.7h-0.7V55zM247.3 54.4h1.1l1.9 5.7 1.9-5.7h1.1v6.2h-0.7V55l-2 5.7h-0.9l-1.9-5.7v5.7h-0.6V54.4z"></path><path fill="#FFFFFF" d="M38.7 82.1c0-1.6 0-29.1 0-29.1l25.9 38.8c0 0 0.3 0.3 0.7 0.3 0.1 0 2.5 0 2.5 0 0.3 0 0.5-0.2 0.5-0.5 0 0 0-33.7 0-35.1 0-1.6 0.3-3.9 0.3-3.9h0c0.3-2.6 2.6-4.6 5.2-4.6l0.2 0c0.3 0 0.5-0.2 0.5-0.5V47c0-0.3-0.2-0.5-0.5-0.5 0 0-2 0-2.6 0 -1 0-2.7 0.3-4.3 0.3v0c-1.6 0-3.3-0.3-4.3-0.3 -0.6 0-2.6 0-2.6 0 -0.3 0-0.5 0.2-0.5 0.5v0.7c0 0.3 0.2 0.5 0.5 0.5l0.2 0c2.7 0 4.9 2 5.2 4.6h0c0 0 0.3 2.3 0.3 3.9l0 23.6L43.5 46.9c0 0-0.3-0.4-1-0.4H41c-1 0-2.7 0.3-4.3 0.3l0 0c-1.6 0-3.3-0.3-4.3-0.3 -0.6 0-1.8 0-1.8 0 -0.3 0-0.5 0.2-0.5 0.5v0.7c0 0.3 0.2 0.5 0.5 0.5l0.2 0c2.7 0 4.9 2 5.2 4.6h0c0 0 0.3 2.3 0.3 3.9 0 0 0 23.8 0 25.5 0 1.6-0.3 3.9-0.3 3.9l0 0c-0.3 2.6-2.6 4.6-5.2 4.6l-0.2 0c-0.3 0-0.5 0.2-0.5 0.5v0.7c0 0.3 0.2 0.5 0.5 0.5 0 0 2 0 2.6 0 1 0 2.7-0.3 4.3-0.3l0 0c1.6 0 3.3 0.3 4.3 0.3 0.6 0 2.6 0 2.6 0 0.3 0 0.5-0.2 0.5-0.5v-0.7c0-0.3-0.2-0.5-0.5-0.5l-0.2 0c-2.7 0-4.9-2-5.2-4.6l0 0C38.9 86 38.7 83.7 38.7 82.1L38.7 82.1zM206.2 82.8c-0.8 2-1.9 3.8-3.2 5.3 -1.4 1.5-3 2.6-4.9 3.5 -1.9 0.8-4 1.3-6.3 1.3 -2.2 0-4.2-0.4-6.1-1.1 -1.8-0.7-3.4-1.8-4.7-3.1 -1.3-1.3-2.4-3-3.1-4.9 -0.7-1.9-1.1-4-1.1-6.2v-0.7c0-2.4 0.4-4.5 1.2-6.6 0.8-2 1.9-3.8 3.2-5.3 1.4-1.5 3-2.6 5-3.5 1.9-0.8 4-1.3 6.3-1.3 2.2 0 4.2 0.4 6.1 1.1 1.8 0.7 3.4 1.8 4.7 3.1 1.3 1.3 2.4 3 3.1 4.8 0.7 1.9 1.1 4 1.1 6.3v0.7C207.4 78.6 207 80.8 206.2 82.8zM199.9 76.5c0-9.6-2.6-14.4-7.8-14.4 -5.2 0-7.8 4.8-7.8 14.4 0 9.6 2.6 14.4 7.8 14.4C197.3 90.9 199.9 86.1 199.9 76.5zM138.9 92.5 165.8 62.5c0.9 0 8.3 0 8.3 0 0.3 0 0.5-0.2 0.5-0.5v-0.7c0-0.3-0.2-0.5-0.5-0.5 0 0-8.1 0-8.3 0 -0.3 0-0.3-0.3-0.3-0.3s0-8.1 0-9.1c0-0.7-0.7-0.4-0.7-0.4s-3.8 1.9-4.2 2.1c-0.6 0.3-0.7 0.9-0.7 0.9s-0.9 5.3-1.1 6c-0.2 0.8-0.8 0.8-0.8 0.8l-15.2 0c-0.3 0-0.5 0.2-0.5 0.5V62c0 0.3 0.2 0.5 0.5 0.5l1.4 0c1.4 0 2.5 1.1 2.5 2.5 0 0.3-0.1 0.6-0.2 0.9l-6.1 16.9 -0.3 1.3 -0.3-1.3 -5.5-14.9 -0.7-2c-0.1-0.3-0.2-0.6-0.2-0.9 0-1.4 1.1-2.5 2.5-2.5l1 0c0.3 0 0.5-0.2 0.5-0.5v-0.7c0-0.3-0.2-0.5-0.5-0.5 0 0-2 0-2.6 0 -1 0-2.7 0.3-4.3 0.3l0 0c-1.6 0-3.3-0.3-4.3-0.3 -0.6 0-2.6 0-2.6 0 -0.3 0-0.5 0.2-0.5 0.5V62c0 0.3 0.2 0.5 0.5 0.5l1.5 0c1.4 0 2.5 1.1 2.5 2.5 0 0.3 0 0.5-0.1 0.8l-0.5 1.5 -5.4 15.4 -0.3 1.3 -0.3-1.3 -6.2-16 -0.3-0.9c-0.1-0.3-0.2-0.6-0.2-0.9 0-1.4 1.1-2.5 2.5-2.5l1 0c0.3 0 0.5-0.2 0.5-0.5v-0.7c0-0.3-0.2-0.5-0.5-0.5 0 0-2 0-2.6 0 -1 0-3.4 0.3-5 0.3l0 0c-1.6 0-3.3-0.3-4.3-0.3 -0.6 0-3.8 0-3.8 0 -0.3 0-0.5 0.2-0.5 0.5V62c0 0.3 0.2 0.5 0.5 0.5h0c0.4 0 3.7 0.1 4.4 2l11.1 27.1 0.2 0.6c0 0 0.2 0.4 0.5 0.4 0.3 0 1.3 0 1.6 0 0.4 0 0.6-0.4 0.6-0.4l0.2-0.6 7.4-21.4 0.3-1.3 0.3 1.3 8 21.4 0.2 0.6c0 0 0.2 0.4 0.5 0.4 0.3 0 1.3 0 1.6 0 0.4 0 0.6-0.4 0.6-0.4l0.2-0.6 10-27.1c0.7-1.7 2.5-2 4.3-2h4.3c0.4 0 0.3 0.3 0.3 0.3v24.9c0.7 1.7 1.8 2.9 3.2 3.8 1.4 0.9 3.2 1.3 5.3 1.3 2.2 0 4-0.7 5.4-2 1.4-1.3 2.1-3.1 2.1-5.2v-1.6c0-0.8-0.2-1.5-0.7-1.9 -0.4-0.5-0.9-0.7-1.5-0.7 0 0-0.3 0-0.3 0.3 0 0.3 0 3.9 0 3.9 0 1.5-0.3 2.6-0.9 3.4s-1.4 1.2-2.5 1.2c-2.2 0-3.3-1.9-3.3-5.5V62.8C165.5 62.8 165.5 62.5 165.8 62.5zM240.1 87.9c0 2.3 3 2.6 3.4 2.6l1 0c0.3 0 0.5 0.2 0.5 0.5v0.7c0 0.3-0.2 0.5-0.5 0.5 0 0-3.2 0-3.8 0 -0.9 0-2.5-0.3-4.1-0.3l0 0c-1.5 0-3.1 0.3-4 0.3 -0.6 0-3.8 0-3.8 0 -0.3 0-0.5-0.2-0.5-0.5v-0.7c0-0.3 0.2-0.5 0.5-0.5l1 0c0.4 0 3.4-0.3 3.4-2.6l0-20.9c-1-2.3-2.6-3.5-4.9-3.5 -1.8 0-3.4 0.7-4.8 2 -1.4 1.3-2.5 3.2-3.3 5.7 0 0 0 14.3 0 16.6 0 2.3 3 2.6 3.4 2.6l1 0c0.3 0 0.5 0.2 0.5 0.5v0.7c0 0.3-0.2 0.5-0.5 0.5 0 0-3.2 0-3.8 0 -0.9 0-2.5-0.3-4.1-0.3l0 0c-1.5 0-3.1 0.3-4 0.3 -0.6 0-3.8 0-3.8 0 -0.3 0-0.5-0.2-0.5-0.5v-0.7c0-0.3 0.2-0.5 0.5-0.5l1 0c0.4 0 3.4-0.3 3.4-2.6 0-2.3 0-22.9 0-22.9 0-1.4-1.1-2.5-2.5-2.5l-1.5 0c-0.3 0-0.5-0.2-0.5-0.5v-0.7c0-0.3 0.2-0.5 0.5-0.5 0 0 2 0 2.6 0l7.9 0c0 0 0.3 0 0.3 0.3 0 0.3 0 6.2 0 6.2 2.6-4.8 6.2-7.2 10.8-7.2 2.1 0 4 0.6 5.6 1.8s2.8 2.9 3.6 5.1L240.1 87.9zM102.5 74.3c0 0 0 0.7-0.7 0.7 0 0-19.9 0-20.2 0 -0.3 0-0.3 0.3-0.3 0.3v2.3c0 4 0.8 7 2.5 9.3 1.7 2.2 3.9 3.3 6.8 3.3 2.4 0 4.3-0.7 6-2.2 1.6-1.5 2.7-3.6 3.3-6.3 0 0 0.1-0.5 0.5-0.5 0.4 0 0.5 0 0.5 0 0.4 0 0.7 0.2 1 0.5 0.3 0.3 0.5 1 0.4 1.4 -0.2 1.1-0.8 2.8-1.6 4 -0.8 1.2-1.7 2.2-2.8 3.1 -1.1 0.8-2.4 1.5-3.8 2 -1.4 0.5-2.9 0.7-4.5 0.7 -4.9 0-8.8-1.4-11.5-4.1C75.4 86 74 82.1 74 77.2v-0.7c0-2.3 0.4-4.5 1.2-6.5 0.8-2 1.9-3.7 3.2-5.2 1.4-1.5 3-2.6 5-3.4 1.9-0.8 4-1.2 6.3-1.2 1.9 0 3.6 0.3 5.1 1 1.5 0.7 2.9 1.7 4 2.9 1.1 1.3 2 2.8 2.7 4.5C102.1 70.4 102.4 72.2 102.5 74.3L102.5 74.3zM93.6 64.8c-1.1-1.7-2.7-2.6-4.6-2.6 -2 0-3.6 0.9-5 2.8 -1.3 1.9-2.2 4.5-2.5 8 0 0 12.5 0 13.2 0 0.7 0 0.7-0.7 0.7-0.7C95.3 69 94.8 66.5 93.6 64.8z"></path></svg>